<svg width="127" height="20" viewBox="0 0 127 20" fill="none" xmlns="http://www.w3.org/2000/svg">
<path d="M20.1252 0H0.773438V19.3518H20.1252V0Z" fill="#003FFF"/>
<path fill-rule="evenodd" clip-rule="evenodd" d="M17.1759 2.89317L11.047 16.5534L10.3142 15.8261L11.8798 12.3279C11.4655 11.5959 10.9665 10.9177 10.3958 10.3062L7.58111 13.1077L6.8726 12.4044L9.68263 9.61009C9.07943 9.07353 8.41447 8.60409 7.69981 8.21337L4.2444 9.80089L3.51562 9.07753L17.1759 2.89317ZM8.69247 7.75691L15.361 4.6752L12.3274 11.3327C11.3987 9.88953 10.1549 8.66577 8.69247 7.75691Z" fill="white" stroke="white" stroke-width="0.5"/>
<path d="M28.7031 4.12801H30.1911V15.152H28.7031V4.12801Z" fill="black"/>
<path d="M36.8997 4.12801L39.3957 12.64L41.8917 4.12801H43.4277L40.1157 15.152H38.6917L35.3477 4.12801H36.8997Z" fill="black"/>
<path d="M56.2728 12.464L57.3928 13.408C56.8915 14.0054 56.2781 14.4746 55.5528 14.816C54.8381 15.1466 54.0595 15.312 53.2168 15.312C51.6595 15.312 50.3368 14.7626 49.2488 13.664C48.1715 12.5654 47.6328 11.232 47.6328 9.664C47.6328 8.096 48.1715 6.76266 49.2488 5.664C50.3368 4.55466 51.6595 4 53.2168 4C54.0488 4 54.8221 4.16534 55.5368 4.496C56.2515 4.82666 56.8595 5.28534 57.3608 5.872L56.2408 6.8C55.4088 5.89334 54.4008 5.44 53.2168 5.44C52.0648 5.44 51.0941 5.85066 50.3048 6.672C49.5155 7.49334 49.1208 8.49064 49.1208 9.664C49.1208 10.8374 49.5155 11.8346 50.3048 12.656C51.0941 13.4666 52.0648 13.872 53.2168 13.872C54.4541 13.872 55.4728 13.4026 56.2728 12.464Z" fill="black"/>
<path d="M70.7966 4.12801V15.152H69.2926V10.352H63.9646V15.152H62.4766V4.12801H63.9646V8.99201H69.2926V4.12801H70.7966Z" fill="black"/>
<path d="M77.0039 4.12801H83.532V5.52001H78.4919V9.04001H82.892V10.432H78.4919V13.76H83.692V15.152H77.0039V4.12801Z" fill="black"/>
<path d="M97.186 15.152H95.762L90.738 6.84801V15.152H89.25V4.12801H90.722L95.698 12.368V4.12801H97.186V15.152Z" fill="black"/>
<path d="M106.123 9.63201L111.243 15.152H109.243L104.875 10.448V15.152H103.387V4.12801H104.875V8.89601L108.523 4.12801H110.363L106.123 9.63201Z" fill="black"/>
<path d="M114.492 9.664C114.492 8.08536 115.031 6.74666 116.108 5.648C117.185 4.54934 118.503 4 120.06 4C121.628 4 122.951 4.54934 124.028 5.648C125.116 6.74666 125.66 8.08536 125.66 9.664C125.66 11.232 125.116 12.5654 124.028 13.664C122.951 14.7626 121.628 15.312 120.06 15.312C118.503 15.312 117.185 14.7626 116.108 13.664C115.031 12.5654 114.492 11.232 114.492 9.664ZM117.164 6.672C116.375 7.49334 115.98 8.49064 115.98 9.664C115.98 10.8374 116.369 11.8346 117.148 12.656C117.937 13.4666 118.908 13.872 120.06 13.872C121.212 13.872 122.183 13.4666 122.972 12.656C123.761 11.8346 124.156 10.8374 124.156 9.664C124.156 8.49064 123.761 7.49334 122.972 6.672C122.183 5.85066 121.212 5.44 120.06 5.44C118.919 5.44 117.953 5.85066 117.164 6.672Z" fill="black"/>
</svg>
